
Title: Ticking Clock 2011 SCR H264 Feel-Free

Genre: Action | Thriller 
Language:English
IMDb:http://www.imdb.com/title/tt1519664/
Source:IMAGiNE Thx.

Format : MPEG-4
Format profile : Base Media
Codec ID : isom
File size : 808 MiB
Duration : 1h 41mn
Overall bit rate : 1 118 Kbps


Video
Codec ID : avc1
Codec ID/Info : Advanced Video Coding
Duration : 1h 41mn
Bit rate mode : Variable
Bit rate : 950 Kbps
Width : 720 pixels
Height : 304 pixels
Display aspect ratio : 2.35:1
Frame rate mode : Constant
Frame rate : 29.970 fps
Original frame rate : 29.000 fps
Color space : YUV
Chroma subsampling : 4:2:0
Bit depth : 8 bits
Scan type : Progressive
Bits/(Pixel*Frame) : 0.145
Stream size : 687 MiB (85%)
Language : English

Audio
ID : 1
Format : AAC
Format/Info : Advanced Audio Codec
Format version : Version 4
Format profile : LC
Codec ID : 40
Duration : 1h 41mn
Bit rate mode : Constant
Bit rate : 160 Kbps
Channel(s) : 2 channels
Channel positions : Front: L R
Sampling rate : 48.0 KHz
Stream size : 116 MiB (14%)
Language : English


Plot:
A reporter stumbles upon the journal of a murderer replete with plans to butcher specific people, and investigates on his own, finding that every trail leads to a 9-year-old orphan living in a group home








================================== 
http://thepiratebay.org/user/hiest
==================================








Screen Shots:
 
http://rapidhdd.com/images/759168vlcsnap-2010-12-05-19h57m33s75.png
 
http://www.rapidhdd.com/images/584733vlcsnap-2010-12-05-19h57m39s144.png
 
http://www.rapidhdd.com/images/208889vlcsnap-2010-12-05-19h57m59s88.png
 
http://www.rapidhdd.com/images/584876vlcsnap-2010-12-05-19h57m48s225.png
 
http://www.rapidhdd.com/images/573566vlcsnap-2010-12-05-19h57m54s35.png
 
http://www.rapidhdd.com/images/901892vlcsnap-2010-12-05-19h58m33s167.png

